<?xml version="1.0" encoding="UTF-8"?>
<svg id="Capa_1" xmlns="http://www.w3.org/2000/svg" xmlns:xlink="http://www.w3.org/1999/xlink" viewBox="0 0 1080 1080">
  <defs>
    <style>
      .cls-1 {
        stroke: #004e41;
        stroke-linecap: round;
        stroke-linejoin: round;
        stroke-width: 14px;
      }

      .cls-1, .cls-2 {
        fill: none;
      }

      .cls-3 {
        letter-spacing: .5em;
      }

      .cls-4 {
        letter-spacing: .49em;
      }

      .cls-5 {
        font-family: Balfira-Regular, Balfira;
        font-size: 60px;
      }

      .cls-5, .cls-6 {
        fill: #004e41;
      }

      .cls-7 {
        clip-path: url(#clippath-1);
      }

      .cls-8 {
        letter-spacing: .48em;
      }

      .cls-9 {
        letter-spacing: .49em;
      }

      .cls-10 {
        letter-spacing: .49em;
      }

      .cls-11 {
        clip-path: url(#clippath);
      }
    </style>
    <clipPath id="clippath">
      <rect class="cls-2" y="-30" width="1080" height="1080"/>
    </clipPath>
    <clipPath id="clippath-1">
      <rect class="cls-2" x="186.11" y="424.8" width="707.78" height="170.4"/>
    </clipPath>
  </defs>
  <g class="cls-11">
    <g id="b">
      <g class="cls-7">
        <g>
          <path class="cls-1" d="M193.25,439.8v96.22c0,28.74,23.3,52.03,52.04,52.03s52.03-23.3,52.03-52.03v-96.22"/>
          <path class="cls-1" d="M444.68,584.13v-96.22c0-28.74-23.3-52.03-52.03-52.03s-52.04,23.3-52.04,52.03v96.22"/>
          <path class="cls-1" d="M487.97,487.91c0,28.76,23.3,52.08,52.05,52.09,28.76,0,52.08-23.3,52.09-52.05,0-28.76-23.3-52.08-52.05-52.09-21.36,0-40.56,13.04-48.43,32.9-2.42,6.1-3.66,12.6-3.66,19.15Z"/>
          <path class="cls-1" d="M635.33,435.87v96.22c0,28.74,23.3,52.03,52.04,52.03s52.03-23.3,52.03-52.03v-96.22"/>
          <path class="cls-1" d="M886.75,580.2v-96.22c0-28.74-23.3-52.04-52.03-52.04s-52.03,23.3-52.03,52.04v96.22"/>
          <circle class="cls-6" cx="540" cy="487.91" r="13"/>
        </g>
      </g>
    </g>
  </g>
  <text class="cls-5" transform="translate(388.59 692.85)"><tspan class="cls-10" x="0" y="0">s</tspan><tspan class="cls-8" x="55.44" y="0">t</tspan><tspan class="cls-4" x="98.22" y="0">u</tspan><tspan class="cls-3" x="159.42" y="0">d</tspan><tspan class="cls-9" x="225.84" y="0">i</tspan><tspan class="cls-3" x="269.34" y="0">o</tspan></text>
</svg>